<?xml version="1.0" encoding="UTF-8"?>
<svg width="24px" height="24px" viewBox="0 0 24 24" version="1.1" xmlns="http://www.w3.org/2000/svg" xmlns:xlink="http://www.w3.org/1999/xlink">
    <title>icon_bookshelf_add</title>
    <g stroke="none" stroke-width="1" fill="none" fill-rule="evenodd">
        <g id="icon_reader_top_bookshelf_cancel" fill="#FFFFFF">
            <path d="M12.875,16.375 L12.875,18 L14.5,18 L14.5,19.5 L12.875,19.5 L12.875,21.125 L11.375,21.125 L11.375,19.5 L9.75,19.5 L9.75,18 L11.375,18 L11.375,16.375 L12.875,16.375 Z" id="Combined-Shape"></path>
            <path d="M18.25,18 L18.3933244,17.9941881 C19.2915375,17.92105 20,17.16675 20,16.25 C20,15.285 19.215,14.5 18.25,14.5 L18.25,14.5 L5.169,14.5 C5.385,15.048 5.5,15.64 5.5,16.25 C5.5,16.86 5.385,17.452 5.169,18 L5.169,18 L8,18 L8,19.5 L2.5,19.5 L2.5,18.989 L2.66549072,18.8757874 C3.47441406,18.2849609 4,17.328125 4,16.25 C4,15.1 3.402,14.088 2.5,13.511 L2.5,13.511 L2.5,13 L18.25,13 L18.4344311,13.0051445 C20.1436147,13.1007491 21.5,14.5168966 21.5,16.25 C21.5,18.045 20.045,19.5 18.25,19.5 L18.25,19.5 L16,19.5 L16,18 L18.25,18 Z" id="Combined-Shape"></path>
            <path d="M21.5,4.5 L21.5,5.011 C20.598,5.588 20,6.6 20,7.75 C20,8.9 20.598,9.912 21.5,10.489 L21.5,10.489 L21.5,11 L5.75,11 C3.955,11 2.5,9.545 2.5,7.75 C2.5,5.955 3.955,4.5 5.75,4.5 L5.75,4.5 L21.5,4.5 Z M18.831,6 L5.75,6 C4.785,6 4,6.785 4,7.75 C4,8.715 4.785,9.5 5.75,9.5 L5.75,9.5 L18.831,9.5 C18.615,8.952 18.5,8.36 18.5,7.75 C18.5,7.14 18.615,6.548 18.831,6 L18.831,6 Z" id="Fill-1"></path>
        </g>
    </g>
</svg>